<svg width="233" height="226" viewBox="0 0 233 226" fill="none" xmlns="http://www.w3.org/2000/svg">
<path d="M80.2729 105.139C82.6115 101.713 84.3224 98.8717 85.6988 96.5887C89.0428 91.0371 91.2498 87.3708 96.5937 86.9C104.259 86.2262 108.285 96.8001 110.943 106.089C111.206 107.012 111.458 107.901 111.7 108.757C112.662 112.164 113.495 115.104 114.304 117.23C115.04 119.155 115.562 119.879 115.797 120.132C115.98 120.066 116.237 119.863 116.638 119.208C117.406 117.952 118.163 115.822 119.039 113.357C119.98 110.707 121.151 107.412 122.841 103.739C125.015 99.0098 127.865 94.132 132.504 93.8349C136.847 93.5566 139.91 97.432 142.339 101.259C143.368 102.883 144.262 104.48 145.049 105.89C148.559 112.174 149.552 113.003 152.637 112.229C161.711 109.946 169.111 108.692 174.429 108.002C177.149 104.053 178.813 99.782 178.813 94.109C178.813 75.8218 163.529 61 144.678 61C133.891 61 124.275 65.8506 118.019 73.4279C117.188 74.4344 115.624 74.4344 114.794 73.4279C108.537 65.8506 98.9194 61 88.1367 61C69.2831 61 54 75.8239 54 94.109C54 100.131 55.9352 104.762 59.0009 109.008C68.2777 110.105 76.6161 110.502 80.2772 105.143L80.2729 105.139Z" fill="#5400AE" fill-opacity="0.94"/>
<path d="M154.358 118.678C150.41 119.67 147.03 118.969 144.309 116.592C142.156 114.711 140.695 112.093 139.002 109.063C138.221 107.665 137.414 106.219 136.482 104.752C134.402 101.473 133.296 100.701 132.942 100.525C132.564 100.753 131.24 101.831 129.112 106.453C127.546 109.858 126.476 112.869 125.533 115.527C124.493 118.454 123.671 120.769 122.543 122.61C120.966 125.186 118.819 126.599 116.166 126.81C115.972 126.825 115.78 126.833 115.59 126.833C112.675 126.833 110.339 125.006 108.639 121.39C107.402 118.762 106.373 115.123 105.072 110.517C104.833 109.667 104.583 108.784 104.322 107.868C100.339 93.95 97.2668 93.5356 97.2172 93.5356C95.5452 93.6821 94.7815 94.72 91.6317 99.9494C90.2121 102.306 88.4473 105.237 86.0008 108.818C83.0042 113.204 78.3269 115.621 71.6994 116.201C69.6822 116.378 67.5615 116.376 65.389 116.27C67.7513 118.643 70.3316 121.085 72.9787 123.782L114.839 164.832C115.639 165.617 116.942 165.619 117.747 164.841L160.3 123.569C160.328 123.541 160.356 123.514 160.382 123.485C162.984 120.635 165.482 118.142 167.754 115.786C163.87 116.479 159.374 117.412 154.356 118.676L154.358 118.678Z" fill="#5400AE" fill-opacity="0.94"/>
<path d="M44.416 198.568C44.7147 198.568 45.024 198.653 45.344 198.824C45.6853 198.973 45.9413 199.176 46.112 199.432L53.888 211.4L52.288 211.336L60.256 199.432C60.6613 198.856 61.184 198.568 61.824 198.568C62.336 198.568 62.7947 198.749 63.2 199.112C63.6053 199.475 63.808 199.944 63.808 200.52V219.048C63.808 219.603 63.6267 220.072 63.264 220.456C62.9013 220.819 62.4213 221 61.824 221C61.2267 221 60.736 220.819 60.352 220.456C59.9893 220.072 59.808 219.603 59.808 219.048V203.976L61.056 204.264L54.528 214.216C54.336 214.451 54.0907 214.653 53.792 214.824C53.5147 214.995 53.2267 215.069 52.928 215.048C52.6507 215.069 52.3627 214.995 52.064 214.824C51.7867 214.653 51.552 214.451 51.36 214.216L45.248 204.552L46.08 202.856V219.048C46.08 219.603 45.9093 220.072 45.568 220.456C45.2267 220.819 44.7787 221 44.224 221C43.6907 221 43.2533 220.819 42.912 220.456C42.5707 220.072 42.4 219.603 42.4 219.048V200.52C42.4 199.987 42.592 199.528 42.976 199.144C43.3813 198.76 43.8613 198.568 44.416 198.568ZM76.3628 221.32C74.5494 221.32 72.9708 220.947 71.6268 220.2C70.3041 219.432 69.2801 218.397 68.5548 217.096C67.8508 215.795 67.4988 214.323 67.4988 212.68C67.4988 210.76 67.8828 209.128 68.6508 207.784C69.4401 206.419 70.4641 205.373 71.7228 204.648C72.9814 203.923 74.3148 203.56 75.7228 203.56C76.8108 203.56 77.8348 203.784 78.7948 204.232C79.7761 204.68 80.6401 205.299 81.3868 206.088C82.1334 206.856 82.7201 207.752 83.1468 208.776C83.5948 209.8 83.8188 210.888 83.8188 212.04C83.7974 212.552 83.5948 212.968 83.2108 213.288C82.8268 213.608 82.3788 213.768 81.8668 213.768H69.6428L68.6828 210.568H80.4268L79.7228 211.208V210.344C79.6801 209.725 79.4561 209.171 79.0508 208.68C78.6668 208.189 78.1761 207.805 77.5788 207.528C77.0028 207.229 76.3841 207.08 75.7228 207.08C75.0828 207.08 74.4854 207.165 73.9308 207.336C73.3761 207.507 72.8961 207.795 72.4908 208.2C72.0854 208.605 71.7654 209.149 71.5308 209.832C71.2961 210.515 71.1788 211.379 71.1788 212.424C71.1788 213.576 71.4134 214.557 71.8828 215.368C72.3734 216.157 72.9921 216.765 73.7388 217.192C74.5068 217.597 75.3174 217.8 76.1708 217.8C76.9601 217.8 77.5894 217.736 78.0588 217.608C78.5281 217.48 78.9014 217.331 79.1788 217.16C79.4774 216.968 79.7441 216.808 79.9788 216.68C80.3628 216.488 80.7254 216.392 81.0668 216.392C81.5361 216.392 81.9201 216.552 82.2188 216.872C82.5388 217.192 82.6988 217.565 82.6988 217.992C82.6988 218.568 82.4001 219.091 81.8028 219.56C81.2481 220.029 80.4694 220.445 79.4668 220.808C78.4641 221.149 77.4294 221.32 76.3628 221.32ZM96.3258 203.56C97.9044 203.56 99.0991 203.891 99.9098 204.552C100.742 205.213 101.307 206.099 101.606 207.208C101.926 208.296 102.086 209.512 102.086 210.856V219.048C102.086 219.603 101.904 220.072 101.542 220.456C101.179 220.819 100.72 221 100.166 221C99.6111 221 99.1524 220.819 98.7898 220.456C98.4271 220.072 98.2458 219.603 98.2458 219.048V210.856C98.2458 210.152 98.1498 209.523 97.9578 208.968C97.7871 208.392 97.4671 207.933 96.9978 207.592C96.5284 207.251 95.8564 207.08 94.9818 207.08C94.1284 207.08 93.4031 207.251 92.8058 207.592C92.2298 207.933 91.7818 208.392 91.4618 208.968C91.1631 209.523 91.0138 210.152 91.0138 210.856V219.048C91.0138 219.603 90.8324 220.072 90.4698 220.456C90.1071 220.819 89.6484 221 89.0938 221C88.5391 221 88.0804 220.819 87.7178 220.456C87.3551 220.072 87.1738 219.603 87.1738 219.048V205.832C87.1738 205.277 87.3551 204.819 87.7178 204.456C88.0804 204.072 88.5391 203.88 89.0938 203.88C89.6484 203.88 90.1071 204.072 90.4698 204.456C90.8324 204.819 91.0138 205.277 91.0138 205.832V207.208L90.5338 207.112C90.7258 206.749 91.0031 206.365 91.3658 205.96C91.7284 205.533 92.1551 205.139 92.6458 204.776C93.1364 204.413 93.6911 204.125 94.3098 203.912C94.9284 203.677 95.6004 203.56 96.3258 203.56ZM106.428 204.2H114.012C114.524 204.2 114.951 204.371 115.292 204.712C115.634 205.053 115.804 205.48 115.804 205.992C115.804 206.483 115.634 206.899 115.292 207.24C114.951 207.56 114.524 207.72 114.012 207.72H106.428C105.916 207.72 105.49 207.549 105.148 207.208C104.807 206.867 104.636 206.44 104.636 205.928C104.636 205.437 104.807 205.032 105.148 204.712C105.49 204.371 105.916 204.2 106.428 204.2ZM109.852 200.2C110.407 200.2 110.855 200.392 111.196 200.776C111.559 201.139 111.74 201.597 111.74 202.152V216.392C111.74 216.691 111.794 216.936 111.9 217.128C112.028 217.32 112.188 217.459 112.38 217.544C112.594 217.629 112.818 217.672 113.052 217.672C113.308 217.672 113.543 217.629 113.756 217.544C113.97 217.437 114.215 217.384 114.492 217.384C114.791 217.384 115.058 217.523 115.292 217.8C115.548 218.077 115.676 218.461 115.676 218.952C115.676 219.549 115.346 220.04 114.684 220.424C114.044 220.808 113.351 221 112.604 221C112.156 221 111.655 220.968 111.1 220.904C110.567 220.819 110.055 220.637 109.564 220.36C109.095 220.061 108.7 219.613 108.38 219.016C108.06 218.419 107.9 217.597 107.9 216.552V202.152C107.9 201.597 108.082 201.139 108.444 200.776C108.828 200.392 109.298 200.2 109.852 200.2ZM133.346 203.56C133.901 203.56 134.359 203.741 134.722 204.104C135.085 204.467 135.266 204.936 135.266 205.512V219.048C135.266 219.603 135.085 220.072 134.722 220.456C134.359 220.819 133.901 221 133.346 221C132.791 221 132.333 220.819 131.97 220.456C131.607 220.072 131.426 219.603 131.426 219.048V217.48L132.13 217.768C132.13 218.045 131.981 218.387 131.682 218.792C131.383 219.176 130.978 219.56 130.466 219.944C129.954 220.328 129.346 220.659 128.642 220.936C127.959 221.192 127.213 221.32 126.402 221.32C124.93 221.32 123.597 220.947 122.402 220.2C121.207 219.432 120.258 218.387 119.554 217.064C118.871 215.72 118.53 214.184 118.53 212.456C118.53 210.707 118.871 209.171 119.554 207.848C120.258 206.504 121.197 205.459 122.37 204.712C123.543 203.944 124.845 203.56 126.274 203.56C127.191 203.56 128.034 203.699 128.802 203.976C129.57 204.253 130.231 204.605 130.786 205.032C131.362 205.459 131.799 205.896 132.098 206.344C132.418 206.771 132.578 207.133 132.578 207.432L131.426 207.848V205.512C131.426 204.957 131.607 204.499 131.97 204.136C132.333 203.752 132.791 203.56 133.346 203.56ZM126.882 217.8C127.821 217.8 128.642 217.565 129.346 217.096C130.05 216.627 130.594 215.987 130.978 215.176C131.383 214.365 131.586 213.459 131.586 212.456C131.586 211.432 131.383 210.515 130.978 209.704C130.594 208.893 130.05 208.253 129.346 207.784C128.642 207.315 127.821 207.08 126.882 207.08C125.965 207.08 125.154 207.315 124.45 207.784C123.746 208.253 123.191 208.893 122.786 209.704C122.402 210.515 122.21 211.432 122.21 212.456C122.21 213.459 122.402 214.365 122.786 215.176C123.191 215.987 123.746 216.627 124.45 217.096C125.154 217.565 125.965 217.8 126.882 217.8ZM143.584 219.048C143.584 219.603 143.392 220.072 143.008 220.456C142.645 220.819 142.186 221 141.632 221C141.098 221 140.65 220.819 140.288 220.456C139.925 220.072 139.744 219.603 139.744 219.048V199.272C139.744 198.717 139.925 198.259 140.288 197.896C140.672 197.512 141.141 197.32 141.696 197.32C142.25 197.32 142.698 197.512 143.04 197.896C143.402 198.259 143.584 198.717 143.584 199.272V219.048ZM151.665 219.048C151.665 219.603 151.483 220.072 151.121 220.456C150.758 220.819 150.299 221 149.745 221C149.19 221 148.731 220.819 148.369 220.456C148.006 220.072 147.825 219.603 147.825 219.048V205.832C147.825 205.277 148.006 204.819 148.369 204.456C148.731 204.072 149.19 203.88 149.745 203.88C150.299 203.88 150.758 204.072 151.121 204.456C151.483 204.819 151.665 205.277 151.665 205.832V219.048ZM149.713 201.8C148.987 201.8 148.475 201.683 148.177 201.448C147.878 201.213 147.729 200.797 147.729 200.2V199.592C147.729 198.973 147.889 198.557 148.209 198.344C148.55 198.109 149.062 197.992 149.745 197.992C150.491 197.992 151.014 198.109 151.313 198.344C151.611 198.579 151.761 198.995 151.761 199.592V200.2C151.761 200.819 151.601 201.245 151.281 201.48C150.961 201.693 150.438 201.8 149.713 201.8ZM154.619 218.344C154.406 218.045 154.31 217.661 154.331 217.192C154.353 216.723 154.63 216.317 155.163 215.976C155.505 215.763 155.867 215.677 156.251 215.72C156.635 215.741 157.009 215.933 157.371 216.296C157.99 216.915 158.641 217.395 159.323 217.736C160.006 218.077 160.859 218.248 161.883 218.248C162.203 218.227 162.555 218.184 162.939 218.12C163.323 218.035 163.654 217.864 163.931 217.608C164.23 217.331 164.379 216.915 164.379 216.36C164.379 215.891 164.219 215.517 163.899 215.24C163.579 214.963 163.153 214.728 162.619 214.536C162.107 214.344 161.531 214.163 160.891 213.992C160.23 213.8 159.547 213.587 158.843 213.352C158.161 213.117 157.531 212.819 156.955 212.456C156.379 212.072 155.91 211.571 155.547 210.952C155.185 210.333 155.003 209.555 155.003 208.616C155.003 207.549 155.302 206.643 155.899 205.896C156.497 205.149 157.265 204.573 158.203 204.168C159.163 203.763 160.166 203.56 161.211 203.56C161.873 203.56 162.566 203.645 163.291 203.816C164.017 203.965 164.71 204.221 165.371 204.584C166.033 204.925 166.587 205.384 167.035 205.96C167.27 206.28 167.409 206.664 167.451 207.112C167.494 207.56 167.291 207.965 166.843 208.328C166.523 208.584 166.15 208.701 165.723 208.68C165.297 208.637 164.945 208.488 164.667 208.232C164.305 207.763 163.814 207.389 163.195 207.112C162.598 206.835 161.905 206.696 161.115 206.696C160.795 206.696 160.443 206.739 160.059 206.824C159.697 206.888 159.377 207.048 159.099 207.304C158.822 207.539 158.683 207.923 158.683 208.456C158.683 208.947 158.843 209.341 159.163 209.64C159.483 209.917 159.91 210.152 160.443 210.344C160.998 210.515 161.585 210.685 162.203 210.856C162.843 211.027 163.494 211.229 164.155 211.464C164.817 211.699 165.425 212.008 165.979 212.392C166.534 212.776 166.982 213.277 167.323 213.896C167.665 214.493 167.835 215.261 167.835 216.2C167.835 217.288 167.515 218.216 166.875 218.984C166.235 219.752 165.435 220.339 164.475 220.744C163.515 221.128 162.534 221.32 161.531 221.32C160.273 221.32 159.014 221.107 157.755 220.68C156.497 220.232 155.451 219.453 154.619 218.344ZM171.241 204.2H178.825C179.337 204.2 179.763 204.371 180.105 204.712C180.446 205.053 180.617 205.48 180.617 205.992C180.617 206.483 180.446 206.899 180.105 207.24C179.763 207.56 179.337 207.72 178.825 207.72H171.241C170.729 207.72 170.302 207.549 169.961 207.208C169.619 206.867 169.449 206.44 169.449 205.928C169.449 205.437 169.619 205.032 169.961 204.712C170.302 204.371 170.729 204.2 171.241 204.2ZM174.665 200.2C175.219 200.2 175.667 200.392 176.009 200.776C176.371 201.139 176.553 201.597 176.553 202.152V216.392C176.553 216.691 176.606 216.936 176.713 217.128C176.841 217.32 177.001 217.459 177.193 217.544C177.406 217.629 177.63 217.672 177.865 217.672C178.121 217.672 178.355 217.629 178.569 217.544C178.782 217.437 179.027 217.384 179.305 217.384C179.603 217.384 179.87 217.523 180.105 217.8C180.361 218.077 180.489 218.461 180.489 218.952C180.489 219.549 180.158 220.04 179.497 220.424C178.857 220.808 178.163 221 177.417 221C176.969 221 176.467 220.968 175.913 220.904C175.379 220.819 174.867 220.637 174.377 220.36C173.907 220.061 173.513 219.613 173.193 219.016C172.873 218.419 172.713 217.597 172.713 216.552V202.152C172.713 201.597 172.894 201.139 173.257 200.776C173.641 200.392 174.11 200.2 174.665 200.2Z" fill="#5400AE" fill-opacity="0.94"/>
</svg>
